<svg width="27" height="23" viewBox="0 0 27 23" fill="none" xmlns="http://www.w3.org/2000/svg">
<path d="M25.875 1.37508C24.7977 2.13499 23.6049 2.71621 22.3425 3.09633C21.665 2.31728 20.7645 1.76511 19.7629 1.5145C18.7613 1.26389 17.7069 1.32693 16.7423 1.69509C15.7777 2.06326 14.9495 2.71878 14.3696 3.57301C13.7897 4.42724 13.4862 5.43896 13.5 6.47133V7.59633C11.523 7.6476 9.56393 7.20912 7.79738 6.31996C6.03084 5.4308 4.51161 4.11855 3.375 2.50008C3.375 2.50008 -1.125 12.6251 9 17.1251C6.68309 18.6978 3.92305 19.4864 1.125 19.3751C11.25 25.0001 23.625 19.3751 23.625 6.43758C23.624 6.12422 23.5938 5.81163 23.535 5.50383C24.6832 4.37151 25.4934 2.94188 25.875 1.37508Z" fill="white" stroke="white" stroke-width="2" stroke-linecap="round" stroke-linejoin="round"/>
</svg>
